<?xml version="1.0" encoding="UTF-8" standalone="no"?> <svg width="64" height="64" viewBox="0 0 64 64" fill="none" xmlns="http://www.w3.org/2000/svg">
<path d="M18 12C18 10.8954 18.8954 10 20 10H26C27.1046 10 28 10.8954 28 12V14H18V12Z" fill="#F55B54"/>
<path fill-rule="evenodd" clip-rule="evenodd" d="M30 14C30 15.1046 29.1046 16 28 16H18C16.8954 16 16 15.1046 16 14V12C16 9.79086 17.7909 8 20 8H26C28.2091 8 30 9.79086 30 12V14ZM20 10C18.8954 10 18 10.8954 18 12V14H28V12C28 10.8954 27.1046 10 26 10H20Z" fill="#A83C37"/>
<path fill-rule="evenodd" clip-rule="evenodd" d="M20 10C18.8954 10 18 10.8954 18 12V14H19V13C19 11.8954 19.8954 11 21 11H27C27.2935 11 27.5722 11.0632 27.8232 11.1768C27.5094 10.4828 26.8111 10 26 10H20Z" fill="#FF8B86"/>
<path d="M16 52L48 52C53.5228 52 58 47.5228 58 42L58 33L6 33L6 42C6 47.5228 10.4772 52 16 52Z" fill="#686666"/>
<path fill-rule="evenodd" clip-rule="evenodd" d="M9.44652 49.5535C7.92249 47.7984 7 45.5069 7 43L7 34L58 34V33L6 33V42C6 45.0159 7.33511 47.72 9.44652 49.5535Z" fill="#999494"/>
<path d="M48 14H16C10.4772 14 6 18.4772 6 24V33H58V24C58 18.4772 53.5228 14 48 14Z" fill="#F3DFB7"/>
<path fill-rule="evenodd" clip-rule="evenodd" d="M16 14H48C51.0159 14 53.72 15.3351 55.5535 17.4465C53.7984 15.9225 51.5069 15 49 15H17C11.4772 15 7 19.4772 7 25V33H6V24C6 18.4772 10.4772 14 16 14Z" fill="#FFF3DC"/>
<path d="M48 54L16 54C9.37259 54 4 48.6274 4 42L4 33L6 33L6 42C6 47.5228 10.4772 52 16 52L48 52C53.5228 52 58 47.5228 58 42L58 33L60 33L60 42C60 48.6274 54.6274 54 48 54Z" fill="#433D3D"/>
<path d="M16 12H48C54.6274 12 60 17.3726 60 24V33H58V24C58 18.4772 53.5228 14 48 14H16C10.4772 14 6 18.4772 6 24V33H4V24C4 17.3726 9.37258 12 16 12Z" fill="#826E47"/>
<path d="M4 31H60V33H4V31Z" fill="#433D3D"/>
<path d="M42 47C40.8954 47 40 46.1046 40 45L40 39C40 37.8954 40.8954 37 42 37C43.1046 37 44 37.8954 44 39L44 45C44 46.1046 43.1046 47 42 47Z" fill="#433D3D"/>
<path d="M42 44C41.4477 44 41 43.5523 41 43L41 41C41 40.4477 41.4477 40 42 40C42.5523 40 43 40.4477 43 41L43 43C43 43.5523 42.5523 44 42 44Z" fill="#686666"/>
<path d="M42 42C41.4477 42 41 41.5523 41 41C41 40.4477 41.4477 40 42 40C42.5523 40 43 40.4477 43 41C43 41.5523 42.5523 42 42 42Z" fill="#999494"/>
<path d="M47 47C45.8954 47 45 46.1046 45 45L45 39C45 37.8954 45.8954 37 47 37C48.1046 37 49 37.8954 49 39L49 45C49 46.1046 48.1046 47 47 47Z" fill="#433D3D"/>
<path d="M47 44C46.4477 44 46 43.5523 46 43L46 41C46 40.4477 46.4477 40 47 40C47.5523 40 48 40.4477 48 41L48 43C48 43.5523 47.5523 44 47 44Z" fill="#686666"/>
<path d="M47 44C46.4477 44 46 43.5523 46 43C46 42.4477 46.4477 42 47 42C47.5523 42 48 42.4477 48 43C48 43.5523 47.5523 44 47 44Z" fill="#999494"/>
<path d="M52 47C50.8954 47 50 46.1046 50 45L50 39C50 37.8954 50.8954 37 52 37C53.1046 37 54 37.8954 54 39L54 45C54 46.1046 53.1046 47 52 47Z" fill="#433D3D"/>
<path d="M52 44C51.4477 44 51 43.5523 51 43L51 41C51 40.4477 51.4477 40 52 40C52.5523 40 53 40.4477 53 41L53 43C53 43.5523 52.5523 44 52 44Z" fill="#686666"/>
<path d="M52 42C51.4477 42 51 41.5523 51 41C51 40.4477 51.4477 40 52 40C52.5523 40 53 40.4477 53 41C53 41.5523 52.5523 42 52 42Z" fill="#999494"/>
<path d="M14 20C14 21.1046 13.1046 22 12 22C10.8954 22 10 21.1046 10 20C10 18.8954 10.8954 18 12 18C13.1046 18 14 18.8954 14 20Z" fill="white"/>
<path d="M36 33C36 39.0751 31.0751 44 25 44C18.9249 44 14 39.0751 14 33C14 26.9249 18.9249 22 25 22C31.0751 22 36 26.9249 36 33Z" fill="#686666"/>
<path fill-rule="evenodd" clip-rule="evenodd" d="M38 33C38 40.1797 32.1797 46 25 46C17.8203 46 12 40.1797 12 33C12 25.8203 17.8203 20 25 20C32.1797 20 38 25.8203 38 33ZM25 44C31.0751 44 36 39.0751 36 33C36 26.9249 31.0751 22 25 22C18.9249 22 14 26.9249 14 33C14 39.0751 18.9249 44 25 44Z" fill="#433D3D"/>
<path fill-rule="evenodd" clip-rule="evenodd" d="M33.2622 25.7378C31.3248 24.0336 28.7831 23 26 23C19.9249 23 15 27.9249 15 34C15 36.7831 16.0336 39.3248 17.7378 41.2622C15.4461 39.2463 14 36.292 14 33C14 26.9249 18.9249 22 25 22C28.292 22 31.2463 23.4461 33.2622 25.7378Z" fill="#999494"/>
<path d="M31 33C31 36.3137 28.3137 39 25 39C21.6863 39 19 36.3137 19 33C19 29.6863 21.6863 27 25 27C28.3137 27 31 29.6863 31 33Z" fill="#2C5D78"/>
<path fill-rule="evenodd" clip-rule="evenodd" d="M33 33C33 37.4183 29.4183 41 25 41C20.5817 41 17 37.4183 17 33C17 28.5817 20.5817 25 25 25C29.4183 25 33 28.5817 33 33ZM25 39C28.3137 39 31 36.3137 31 33C31 29.6863 28.3137 27 25 27C21.6863 27 19 29.6863 19 33C19 36.3137 21.6863 39 25 39Z" fill="#123F57"/>
<path fill-rule="evenodd" clip-rule="evenodd" d="M29.7133 29.2867C28.6918 28.4809 27.4021 28 26 28C22.6863 28 20 30.6863 20 34C20 35.4021 20.4809 36.6918 21.2867 37.7133C19.894 36.6145 19 34.9117 19 33C19 29.6863 21.6863 27 25 27C26.9117 27 28.6145 27.894 29.7133 29.2867Z" fill="#297097"/>
<path d="M24 31C24 31.5523 23.5523 32 23 32C22.4477 32 22 31.5523 22 31C22 30.4477 22.4477 30 23 30C23.5523 30 24 30.4477 24 31Z" fill="#4BADD8"/>
<path d="M40 22C40 20.8954 40.8954 20 42 20H50C51.1046 20 52 20.8954 52 22V24C52 25.1046 51.1046 26 50 26H42C40.8954 26 40 25.1046 40 24V22Z" fill="#F3DFB7"/>
<path fill-rule="evenodd" clip-rule="evenodd" d="M42 18H50C52.2091 18 54 19.7909 54 22V24C54 26.2091 52.2091 28 50 28H42C39.7909 28 38 26.2091 38 24V22C38 19.7909 39.7909 18 42 18ZM42 20C40.8954 20 40 20.8954 40 22V24C40 25.1046 40.8954 26 42 26H50C51.1046 26 52 25.1046 52 24V22C52 20.8954 51.1046 20 50 20H42Z" fill="#FFF3DC"/>
<path d="M52 24V22C52 20.8954 51.1046 20 50 20V26C51.1046 26 52 25.1046 52 24Z" fill="#B331E0"/>
<path d="M40 22L40 24C40 25.1046 40.8954 26 42 26L42 20C40.8954 20 40 20.8954 40 22Z" fill="#E03131"/>
<path d="M42 20L42 26L44 26L44 20L42 20Z" fill="#E08531"/>
<path d="M44 20L44 26L46 26L46 20L44 20Z" fill="#E0CF31"/>
<path d="M46 20L46 26L48 26L48 20L46 20Z" fill="#34E031"/>
<path d="M48 20L48 26L50 26L50 20L48 20Z" fill="#31ABE0"/>
<path d="M43 22C43 22.5523 42.5523 23 42 23C41.4477 23 41 22.5523 41 22C41 21.4477 41.4477 21 42 21C42.5523 21 43 21.4477 43 22Z" fill="white"/>
</svg>
